<?xml version="1.0" encoding="UTF-8" standalone="no"?>
<!-- Created with Inkscape (http://www.inkscape.org/) -->

<svg
   width="1024"
   height="1024"
   viewBox="0 0 270.93333 270.93334"
   version="1.1"
   id="svg5"
   inkscape:version="1.1.2 (0a00cf5339, 2022-02-04)"
   sodipodi:docname="tray-icon-messages-5.svg"
   xmlns:inkscape="http://www.inkscape.org/namespaces/inkscape"
   xmlns:sodipodi="http://sodipodi.sourceforge.net/DTD/sodipodi-0.dtd"
   xmlns="http://www.w3.org/2000/svg"
   xmlns:svg="http://www.w3.org/2000/svg">
  <sodipodi:namedview
     id="namedview7"
     pagecolor="#505050"
     bordercolor="#eeeeee"
     borderopacity="1"
     inkscape:pageshadow="0"
     inkscape:pageopacity="0"
     inkscape:pagecheckerboard="0"
     inkscape:document-units="mm"
     showgrid="false"
     units="px"
     width="1024px"
     inkscape:zoom="0.37593996"
     inkscape:cx="1150.4497"
     inkscape:cy="940.30974"
     inkscape:window-width="1850"
     inkscape:window-height="1016"
     inkscape:window-x="70"
     inkscape:window-y="27"
     inkscape:window-maximized="1"
     inkscape:current-layer="layer1" />
  <defs
     id="defs2">
    <filter
       style="color-interpolation-filters:sRGB;"
       inkscape:label="Drop Shadow"
       id="filter138727"
       x="-0.11452919"
       y="-0.11452919"
       width="1.2359629"
       height="1.2447596">
      <feFlood
         flood-opacity="0.498039"
         flood-color="rgb(0,0,0)"
         result="flood"
         id="feFlood138717" />
      <feComposite
         in="flood"
         in2="SourceGraphic"
         operator="in"
         result="composite1"
         id="feComposite138719" />
      <feGaussianBlur
         in="composite1"
         stdDeviation="4.18339"
         result="blur"
         id="feGaussianBlur138721" />
      <feOffset
         dx="0.610557"
         dy="1.37644"
         result="offset"
         id="feOffset138723" />
      <feComposite
         in="SourceGraphic"
         in2="offset"
         operator="over"
         result="fbSourceGraphic"
         id="feComposite138725" />
      <feColorMatrix
         result="fbSourceGraphicAlpha"
         in="fbSourceGraphic"
         values="0 0 0 -1 0 0 0 0 -1 0 0 0 0 -1 0 0 0 0 1 0"
         id="feColorMatrix138747" />
      <feFlood
         id="feFlood138749"
         flood-opacity="0.498039"
         flood-color="rgb(0,0,0)"
         result="flood"
         in="fbSourceGraphic" />
      <feComposite
         in2="fbSourceGraphic"
         id="feComposite138751"
         in="flood"
         operator="in"
         result="composite1" />
      <feGaussianBlur
         id="feGaussianBlur138753"
         in="composite1"
         stdDeviation="4.18339"
         result="blur" />
      <feOffset
         id="feOffset138755"
         dx="0.6"
         dy="1.37644"
         result="offset" />
      <feComposite
         in2="offset"
         id="feComposite138757"
         in="fbSourceGraphic"
         operator="over"
         result="composite2" />
    </filter>
  </defs>
  <g
     inkscape:label="Слой 1"
     inkscape:groupmode="layer"
     id="layer1">
    <g
       id="g265"
       transform="matrix(14.753262,0,0,14.75156,-2281.5096,-1707.6156)">
      <path
         style="opacity:0.2;stroke-width:0.302381"
         d="m 162.02816,116.62596 c -1.32529,0.0354 -2.10958,1.29124 -2.6671,2.37593 -0.10311,0.0547 -0.20677,0.10726 -0.30947,0.16418 -1.05226,0.70746 -1.91407,1.68673 -2.57968,2.75864 -0.5855,1.03346 -0.94063,2.183 -1.07251,3.36103 -0.0784,1.19436 0.0582,2.41139 0.5079,3.52877 0.85139,1.91925 2.95917,4.15745 4.91192,4.13352 -0.42306,-0.2446 -1.48214,-1.20346 -1.81369,-3.02263 0.35198,0.68937 1.94152,1.60326 2.41845,1.81311 -0.23693,-0.22126 -1.14659,-1.54784 -1.20893,-2.32692 l -3.03857,-0.93431 c -0.268,-0.8479 -0.42797,-1.72511 -0.52563,-2.62162 -0.0125,-0.20037 -0.0373,-0.41721 0.0348,-0.3638 0.27005,0.42801 0.64209,0.56314 1.11089,0.80615 -0.44459,-0.69926 -0.64713,-1.50102 -0.57405,-2.33223 0.0733,-0.83405 0.54389,-1.6427 1.0607,-2.24187 0.0613,-0.0702 0.12992,-0.13654 0.19371,-0.20553 0.0276,0.2146 0.063,0.4291 0.088,0.63666 -0.007,0.1606 0.0912,0.49815 0.0142,0.53212 -0.15545,0.46959 -0.30379,1.0753 0.0679,1.48533 0.11773,-0.53075 0.69695,-0.78667 1.15342,-1.00991 0.516,-0.22402 0.93366,-0.71422 1.44457,-0.94966 0.67325,-0.38621 1.32329,0.15827 2.18813,0.15827 0.82684,0 1.70066,-0.3024 2.51886,-0.67031 0.19042,0.19698 0.53086,0.51689 0.67977,0.75063 h -0.002 c 0.42648,0.68206 0.72203,1.47494 0.81915,2.2531 0.12119,1.01782 0.0195,2.0316 -0.58232,2.80233 -7e-5,2e-5 -0.005,6.1e-4 -0.005,6.1e-4 2e-5,0 0.004,-10e-6 0.004,0 0.0124,0.002 1.09195,0.0786 1.81192,-0.60476 -0.51368,3.97178 -2.94906,6.09477 -4.23156,6.64943 1.65426,0.11133 2.91542,-1.10648 2.99369,-1.18354 -0.18518,0.23315 -0.74001,0.92027 -1.18059,1.18354 1.11561,-0.31239 1.86269,-0.42596 2.5667,-0.93963 -2.7e-4,0 0.57196,-0.31145 1.16877,-0.99219 0.0794,-0.0906 0.21592,-0.21578 0.29766,-0.31891 0.0508,-0.0641 0.098,-0.12989 0.14764,-0.19431 0.009,-0.0106 0.0187,-0.0211 0.0272,-0.0319 1.25612,-1.53663 1.86732,-3.44697 1.82196,-5.17827 0.009,-2.09875 -0.84285,-3.92082 -2.27374,-5.42693 -1.03481,-1.0892 -2.20993,-1.8157 -3.26832,-2.17632 -1.37126,-0.39376 -3.06327,-0.56148 -4.27349,-0.3325 -0.11461,0.0383 0.0174,-0.62999 0.15887,-0.73055 -0.28954,0.0271 -0.59896,0.57631 -0.85458,0.84158 -0.0288,0.006 -0.0541,0.0133 -0.0809,0.0201 0.15863,-0.32146 0.082,-0.5379 0.33073,-0.86166 -0.72515,0.13538 -0.86754,0.60891 -1.11917,1.08254 -0.0954,0.0322 -0.18728,0.0719 -0.28112,0.10749 0.23822,-0.78938 0.67164,-1.19213 1.40029,-1.79479 z"
         id="path79" />
      <path
         style="fill:#304776;stroke-width:0.302381"
         d="m 158.05441,130.1776 c 0.73447,1.05635 1.68256,2.301 2.76492,2.46789 -0.42306,-0.2446 -1.48198,-1.20339 -1.81353,-3.02256 0.35198,0.68937 1.94111,1.60369 2.41805,1.81354 -0.23694,-0.22126 -1.14669,-1.54829 -1.20903,-2.32737 l -3.04935,-0.93745 c 0.019,0.0289 0.0865,0.87731 0.88894,2.00595 z"
         id="path83" />
      <path
         style="opacity:0.2;stroke-width:0.302381"
         d="m 168.91238,122.96945 -5.49796,-1.92807 -5.89204,0.39262 -1.50377,1.87661 c 0.26758,1.73473 0.10133,3.61258 1.03316,5.12815 l 10.41719,3.29969 1.43461,-4.00438 z"
         id="path85" />
      <path
         style="fill:#ebebeb;stroke-width:0.302381"
         d="m 168.91238,122.66747 -5.49796,-1.92807 -5.89204,0.39261 -1.50377,1.87662 c 0.26758,1.73472 0.10133,3.61258 1.03316,5.12815 l 10.41719,3.29969 1.43461,-4.00438 z"
         id="path87" />
      <path
         style="fill:#3f7da7;fill-rule:evenodd;stroke-width:0.302381"
         d="m 157.66343,121.01929 0.99264,0.14177 0.27252,-1.32845 -0.54505,0.26569 z"
         id="path89" />
      <path
         style="opacity:0.2;stroke-width:0.302381"
         d="m 168.46517,124.02719 -0.8157,-2.67956 -9.97703,-0.10013 -0.0566,0.0697 -0.0935,0.1172 3.90397,5.47261 z"
         id="path91" />
      <path
         style="fill:#f7f7f7;stroke-width:0.302381"
         d="m 168.46517,123.72481 -0.8157,-2.67956 -9.97703,-0.10013 -0.0566,0.0697 -0.0935,0.11719 3.90397,5.47262 z"
         id="path93" />
      <path
         style="fill:#2f67a4;stroke-width:0.302381"
         d="m 163.39294,117.63456 c -0.001,2.4e-4 -1.25442,0.006 -1.80154,0.18172 -0.91166,0.21039 -1.72959,0.59822 -2.53999,1.04739 -1.05227,0.70745 -1.91404,1.68698 -2.57965,2.75889 -0.58549,1.03346 -0.94028,2.18303 -1.07216,3.36105 -0.0784,1.19436 0.0583,2.41136 0.508,3.52874 0.85138,1.91925 2.95898,4.15707 4.91173,4.13314 -0.24804,-0.0382 -0.43692,-0.28943 -0.6699,-0.42564 -0.78367,-0.45816 -1.52887,-1.22798 -2.09502,-2.04225 -0.80244,-1.12864 -0.8698,-1.97666 -0.88879,-2.00557 l 0.0107,0.003 c -0.2681,-0.84807 -0.42766,-1.7251 -0.52534,-2.62179 -0.0125,-0.20037 -0.0375,-0.41769 0.0347,-0.36428 0.27006,0.42802 0.64227,0.56356 1.11107,0.80657 -0.44459,-0.69926 -0.64737,-1.501 -0.57428,-2.33222 0.0733,-0.83404 0.54391,-1.64263 1.06072,-2.2418 1.35399,-1.55007 3.32964,-2.80406 5.10973,-3.78728 z"
         id="path95" />
      <path
         style="opacity:0.1;fill:#ffffff;stroke-width:0.302381"
         d="m 163.393,117.63478 c -0.001,2.4e-4 -1.25476,0.006 -1.80188,0.18131 -0.91167,0.21039 -1.72912,0.59853 -2.53953,1.0477 -1.05226,0.70746 -1.91407,1.68673 -2.57968,2.75864 -0.5855,1.03346 -0.94063,2.183 -1.07251,3.36103 -0.0157,0.23856 -0.02,0.47818 -0.0177,0.71757 0.003,-0.13852 0.009,-0.27709 0.0177,-0.41519 0.13188,-1.17803 0.48701,-2.32757 1.07251,-3.36103 0.66561,-1.07191 1.52742,-2.05118 2.57968,-2.75864 0.81041,-0.44917 1.62786,-0.83731 2.53953,-1.0477 0.32275,-0.10364 0.81856,-0.1421 1.23079,-0.16123 0.19161,-0.11004 0.38289,-0.21851 0.57109,-0.32246 z"
         id="path97" />
      <path
         style="fill:#4a96e1;stroke-width:0.302381"
         d="m 162.02835,116.32368 c -1.43249,0.0382 -2.23695,1.50519 -2.80148,2.6374 -0.20334,0.35987 -0.41411,0.78691 -0.59172,1.12682 -0.33994,0.53566 -0.14041,1.17898 -0.0699,1.76502 -0.007,0.16059 0.091,0.49777 0.0139,0.53174 -0.15545,0.46959 -0.30358,1.07554 0.0681,1.48557 0.11774,-0.53075 0.69697,-0.78649 1.15343,-1.00972 0.516,-0.22402 0.93368,-0.7146 1.44459,-0.95005 0.67325,-0.3862 1.32333,0.15845 2.18817,0.15845 0.82684,0 1.70032,-0.30229 2.51852,-0.6702 0.19042,0.19698 0.531,0.51693 0.6799,0.75068 h -0.002 c 0.42647,0.68206 0.72216,1.47495 0.81928,2.25311 0.12119,1.01783 0.0196,2.03114 -0.58217,2.80187 -7e-5,1e-5 -0.005,0.001 -0.005,0.001 2e-5,0 0.004,-1e-5 0.004,0 0.0124,0.002 1.09172,0.0783 1.81169,-0.60503 -0.51368,3.97179 -2.94908,6.09497 -4.23158,6.64963 1.70726,0.1149 3.02256,-1.20902 3.02256,-1.20902 0.24828,-0.35361 -0.60013,0.84519 -1.20902,1.20902 1.1156,-0.31238 1.86246,-0.4259 2.56646,-0.93957 -2.6e-4,0 0.57207,-0.31142 1.16887,-0.99216 0.0794,-0.0906 0.2158,-0.21623 0.29754,-0.31936 0.0508,-0.0641 0.0978,-0.12986 0.14744,-0.19428 0.009,-0.0106 0.0187,-0.0207 0.0271,-0.0314 1.25612,-1.53664 1.86785,-3.44717 1.8225,-5.17848 0.009,-2.09873 -0.84299,-3.92059 -2.27388,-5.42669 -1.0348,-1.0892 -2.21003,-1.81599 -3.26842,-2.1766 -1.37126,-0.39377 -3.06312,-0.56165 -4.27334,-0.33266 -0.11461,0.0383 0.0172,-0.63005 0.15861,-0.73061 -0.33932,0.0318 -0.70709,0.78388 -0.98203,0.95129 0.22564,-0.37383 0.1061,-0.59801 0.37752,-0.95129 -1.00901,0.18837 -0.88511,1.03021 -1.5054,1.61825 0.20436,-1.09268 0.65498,-1.51939 1.5054,-2.22277 z"
         id="path99" />
      <path
         style="fill:#4271a3;stroke-width:0.302381"
         d="m 159.1934,122.36879 c 2.01523,-0.058 0.7499,-1.30697 3.43947,-3.62707 -2.19118,1.13453 -4.27677,1.13296 -3.43687,3.62707 h -0.003 z"
         id="path101" />
      <path
         style="fill:#ffffff;stroke-width:0.302381"
         d="m 160.40149,121.35514 c -0.19323,0.35293 -0.64409,0.49518 -0.8935,0.36232 -0.2549,-0.13285 -0.25353,-0.57703 -0.0562,-0.92996 0.19048,-0.35293 1.0319,-0.19458 1.03602,-0.19458 0.004,0 0.10688,0.41063 -0.0863,0.76222 z"
         id="path103" />
      <path
         style="fill:#5c5f60;stroke-width:0.302381"
         d="m 159.55619,122.96368 c 0,0 0.10852,-0.10472 0.052,-0.29621 -0.67646,0.22366 -1.00863,-0.42385 -1.00627,-0.42385 0.002,0 -0.50679,1.33419 0.10089,1.93871 0.0526,-0.49788 0.82829,-1.19261 0.83065,-1.19261"
         id="path105" />
      <circle
         style="fill:#5c5f60;stroke-width:0.302381"
         cx="159.91444"
         cy="121.16177"
         r="0.30238095"
         id="circle107" />
      <path
         style="opacity:0.1;fill:#ffffff;stroke-width:0.302381"
         d="m 162.02816,116.32367 c -1.43249,0.0382 -2.23663,1.50536 -2.80116,2.63757 -0.20334,0.35987 -0.41416,0.78693 -0.59177,1.12684 -0.17639,0.27795 -0.20556,0.58482 -0.18486,0.89769 0.0155,-0.20686 0.0658,-0.40776 0.18486,-0.59531 0.17761,-0.33991 0.38843,-0.76697 0.59177,-1.12684 0.50735,-1.01754 1.20991,-2.30208 2.38656,-2.58028 0.13003,-0.1162 0.25862,-0.23066 0.4146,-0.35967 z m 0,0.60477 c -0.94543,0.1765 -0.90351,0.92428 -1.40383,1.50186 -0.0385,0.12896 -0.0731,0.26645 -0.10158,0.41873 0.58284,-0.55254 0.50934,-1.32942 1.33532,-1.57746 0.0307,-0.10677 0.0723,-0.2159 0.17009,-0.34313 z m 0.60476,0 c -0.27575,0.0258 -0.56913,0.52338 -0.81738,0.80024 -0.0298,0.13766 -0.0594,0.27845 -0.16477,0.45298 0.23185,-0.14117 0.52978,-0.69393 0.82092,-0.88411 0.0381,-0.16015 0.0971,-0.32355 0.16123,-0.36911 z m 0.82682,0.63015 c -0.35022,0.0103 -0.68313,0.0432 -0.98569,0.1004 -0.007,0.002 -0.0125,10e-4 -0.0177,-0.001 -0.0341,0.17023 -0.0383,0.3223 0.0177,0.30356 1.21022,-0.22898 2.90223,-0.0613 4.27349,0.3325 1.05839,0.36062 2.23351,1.08712 3.26832,2.17632 1.43089,1.5061 2.28258,3.32818 2.27376,5.42691 3.9e-4,0.0155 -3e-4,0.0312 0,0.0467 0.003,-0.117 0.003,-0.23348 0,-0.34904 0.009,-2.09873 -0.84287,-3.92081 -2.27376,-5.42691 -1.03481,-1.0892 -2.20993,-1.8157 -3.26832,-2.17632 -1.02845,-0.29532 -2.23712,-0.46383 -3.2878,-0.4329 z"
         id="path109" />
    </g>
    <circle
       style="fill:#c83737;fill-rule:evenodd;stroke-width:0.331247;opacity:1;filter:url(#filter138727)"
       id="path11188"
       cx="182.65834"
       cy="181.22275"
       r="87.664429" />
    <text
       xml:space="preserve"
       style="font-size:105.833px;line-height:1.25;font-family:Ubuntu;fill:#ffffff;stroke-width:0.264583;-inkscape-font-specification:Ubuntu;font-weight:normal;font-style:normal;font-stretch:normal;font-variant:normal"
       x="430.60123"
       y="177.98935"
       id="text72902"><tspan
         sodipodi:role="line"
         id="tspan72900"
         style="fill:#ffffff;stroke-width:0.264583;-inkscape-font-specification:Ubuntu;font-family:Ubuntu;font-weight:normal;font-style:normal;font-stretch:normal;font-variant:normal"
         x="430.60123"
         y="177.98935" /></text>
    <text
       xml:space="preserve"
       style="font-style:normal;font-variant:normal;font-weight:normal;font-stretch:normal;font-size:127px;font-family:Ubuntu;-inkscape-font-specification:Ubuntu;fill:#e6e6e6;stroke-width:0.264583"
       x="147.62131"
       y="228.1627"
       id="text115808"><tspan
         sodipodi:role="line"
         id="tspan115806"
         style="font-size:127px;fill:#e6e6e6;stroke-width:0.264583"
         x="147.62131"
         y="228.1627">5</tspan></text>
  </g>
</svg>
